HIERARCHY
ROOT joint_Root
{
	OFFSET 0.0 0.0 0.0
	CHANNELS 6 Xposition Yposition Zposition Zrotation Xrotation Yrotation 
	JOINT Hips
	{
		OFFSET -17.1583 93.1646 452.98
		CHANNELS 6 Xposition Yposition Zposition Zrotation Xrotation Yrotation 
		JOINT Spine
		{
			OFFSET 15.7357 0.0 0.0
			CHANNELS 6 Xposition Yposition Zposition Zrotation Xrotation Yrotation 
			JOINT Chest
			{
				OFFSET 8.98455 -0.406207 0.0
				CHANNELS 6 Xposition Yposition Zposition Zrotation Xrotation Yrotation 
				JOINT Neck
				{
					OFFSET 16.3773 0.0 0.0
					CHANNELS 6 Xposition Yposition Zposition Zrotation Xrotation Yrotation 
					JOINT Head
					{
						OFFSET 6.45672 0.0 0.0
						CHANNELS 6 Xposition Yposition Zposition Zrotation Xrotation Yrotation 
						End Site
						{
							OFFSET 0.0 0.0 0.0
						}
					}
				}
				JOINT Shoulder_L
				{
					OFFSET 12.9942 -0.242716 4.98039
					CHANNELS 6 Xposition Yposition Zposition Zrotation Xrotation Yrotation 
					JOINT UpperArm_L
					{
						OFFSET 5.34809 0.0 0.0
						CHANNELS 6 Xposition Yposition Zposition Zrotation Xrotation Yrotation 
						JOINT LowerArm_L
						{
							OFFSET 24.3286 1.87007e-05 0.0
							CHANNELS 6 Xposition Yposition Zposition Zrotation Xrotation Yrotation 
							JOINT Hand_L
							{
								OFFSET 22.2916 0.0 0.0
								CHANNELS 6 Xposition Yposition Zposition Zrotation Xrotation Yrotation 
								End Site
								{
									OFFSET 0.0 0.0 0.0
								}
							}
						}
					}
				}
				JOINT Shoulder_R
				{
					OFFSET 12.9945 -0.242716 -4.98039
					CHANNELS 6 Xposition Yposition Zposition Zrotation Xrotation Yrotation 
					JOINT UpperArm_R
					{
						OFFSET -5.34813 0.0 0.0
						CHANNELS 6 Xposition Yposition Zposition Zrotation Xrotation Yrotation 
						JOINT LowerArm_R
						{
							OFFSET -24.3289 0.000322201 0.0
							CHANNELS 6 Xposition Yposition Zposition Zrotation Xrotation Yrotation 
							JOINT Hand_R
							{
								OFFSET -22.2915 -0.000108084 0.0
								CHANNELS 6 Xposition Yposition Zposition Zrotation Xrotation Yrotation 
								End Site
								{
									OFFSET 0.0 0.0 0.0
								}
							}
						}
					}
				}
			}
		}
		JOINT UpperLeg_L
		{
			OFFSET -2.19248 -6.46944 0.0
			CHANNELS 6 Xposition Yposition Zposition Zrotation Xrotation Yrotation 
			JOINT LowerLeg_L
			{
				OFFSET 39.0811 0.0 -1.23785e-05
				CHANNELS 6 Xposition Yposition Zposition Zrotation Xrotation Yrotation 
				JOINT Foot_L
				{
					OFFSET 40.9854 0.0 -1.26872e-05
					CHANNELS 6 Xposition Yposition Zposition Zrotation Xrotation Yrotation 
					JOINT Toes_L
					{
						OFFSET 11.7543 0.0 0.0
						CHANNELS 6 Xposition Yposition Zposition Zrotation Xrotation Yrotation 
						End Site
						{
							OFFSET 0.0 0.0 0.0
						}
					}
				}
			}
		}
		JOINT UpperLeg_R
		{
			OFFSET -2.19251 6.46944 0.0
			CHANNELS 6 Xposition Yposition Zposition Zrotation Xrotation Yrotation 
			JOINT LowerLeg_R
			{
				OFFSET -39.0811 -0.00228153 -0.0401928
				CHANNELS 6 Xposition Yposition Zposition Zrotation Xrotation Yrotation 
				JOINT Foot_R
				{
					OFFSET -40.9854 0.0 0.0
					CHANNELS 6 Xposition Yposition Zposition Zrotation Xrotation Yrotation 
					JOINT Toes_R
					{
						OFFSET -11.7543 0.0 0.0
						CHANNELS 6 Xposition Yposition Zposition Zrotation Xrotation Yrotation 
						End Site
						{
							OFFSET 0.0 0.0 0.0
						}
					}
				}
			}
		}
	}
}
MOTION
Frames:	9
Frame Time:	0.0333333
0.000000 0.000000 0.000000 0.000000 0.000000 -0.000000 -1.655940 93.300100 -5.171150 87.418400 2.399100 5.592490 15.735700 0.000005 -0.000001 81.877400 84.097500 -79.343800 8.984550 -0.406207 -0.000000 3.965820 -1.749450 5.122520 16.377300 -0.000001 -0.000001 4.061330 1.386570 0.686094 6.456720 -0.000001 -0.000000 -12.487400 1.911920 -2.505140 12.994200 -0.242716 4.980390 -91.852500 5.457020 -71.216500 5.348090 -0.000007 -0.000001 -73.067400 7.050070 -12.313400 24.328600 0.000019 0.000005 0.466932 33.362000 -0.849357 22.291600 -0.000001 0.000005 -27.210500 5.097900 5.146710 12.994500 -0.242716 -4.980390 88.483800 4.064460 -69.521300 -5.348130 -0.000001 -0.000004 -68.975600 11.595900 -14.864400 -24.328900 0.000322 -0.000009 -0.088002 -7.445240 -0.682364 -22.291500 -0.000108 -0.000004 -12.357800 5.029650 6.685790 -2.192480 -6.469440 -0.000000 -172.258000 -8.563800 -1.597800 39.081100 -0.000007 -0.000012 0.003009 -0.009182 18.147000 40.985400 -0.000006 -0.000013 -0.841195 14.955700 -66.314700 11.754300 -0.000000 0.000003 -0.000470 0.175189 -9.470790 -2.192510 6.469440 -0.000001 177.842000 12.209400 -178.208000 -39.081100 -0.002282 -0.040193 0.017735 -0.057836 13.984000 -40.985400 0.000008 0.000006 -4.535930 9.225070 -65.507600 -11.754300 -0.000006 -0.000006 -0.008899 0.262888 -5.895110
0.000000 0.000000 0.000000 0.000000 0.000000 -0.000000 -1.763840 93.336700 -4.468460 87.292500 2.806920 4.695000 15.735700 0.000005 -0.000001 79.976400 85.126500 -77.358600 8.984550 -0.406207 -0.000000 1.880410 -1.829810 5.261050 16.377300 -0.000001 -0.000001 5.120750 1.437550 1.302700 6.456720 -0.000001 -0.000000 -11.914100 1.997460 -2.361640 12.994200 -0.242716 4.980390 -91.715800 4.705390 -69.939200 5.348090 -0.000007 -0.000001 -69.523000 -1.646870 -13.302400 24.328600 0.000019 0.000005 0.000099 35.771000 -0.000004 22.291600 -0.000001 0.000005 -29.215200 5.106890 4.955650 12.994500 -0.242716 -4.980390 88.693900 3.240380 -68.031900 -5.348130 -0.000001 -0.000004 -68.464500 -4.108150 -15.150300 -24.328900 0.000322 -0.000009 -0.001226 -8.803850 -0.000052 -22.291500 -0.000108 -0.000004 -15.327500 4.914990 9.088350 -2.192480 -6.469440 -0.000000 -172.108000 -8.521710 -1.861130 39.081100 -0.000007 -0.000012 -0.003275 0.010280 17.666900 40.985400 -0.000006 -0.000013 -0.920812 15.208700 -66.560900 11.754300 -0.000000 0.000003 -0.000666 0.178170 -9.349700 -2.192510 6.469440 -0.000001 177.948000 13.753100 -178.013000 -39.081100 -0.002282 -0.040193 0.011103 -0.033908 12.905000 -40.985400 0.000008 0.000006 -4.328450 10.252500 -65.397400 -11.754300 -0.000006 -0.000006 -0.009436 0.267042 -5.725310
0.000000 0.000000 0.000000 0.000000 0.000000 -0.000000 -1.854600 93.363700 -3.759680 87.241800 3.352650 3.347460 15.735700 0.000005 -0.000001 78.225300 86.200600 -75.586800 8.984550 -0.406207 -0.000000 -0.281453 -1.735460 5.269950 16.377300 -0.000001 -0.000001 4.832660 1.451610 1.662220 6.456720 -0.000001 -0.000000 -11.148200 1.955330 -2.727370 12.994200 -0.242716 4.980390 -91.580200 4.080150 -68.807500 5.348090 -0.000007 -0.000001 -64.600700 -11.301700 -15.426200 24.328600 0.000019 0.000005 0.000075 33.446000 -0.000004 22.291600 -0.000001 0.000005 -27.222500 5.002130 7.260520 12.994500 -0.242716 -4.980390 88.941600 2.470790 -66.802700 -5.348130 -0.000001 -0.000004 -64.517200 -15.283200 -15.022800 -24.328900 0.000322 -0.000009 -0.000806 -6.535750 -0.000041 -22.291500 -0.000108 -0.000004 -16.398300 4.761040 12.042900 -2.192480 -6.469440 -0.000000 -172.128000 -8.289820 -2.597690 39.081100 -0.000007 -0.000012 -0.011951 0.038640 17.186300 40.985400 -0.000006 -0.000013 -1.005910 15.365500 -66.884400 11.754300 -0.000000 0.000003 -0.000667 0.178178 -9.349370 -2.192510 6.469440 -0.000001 178.169000 14.911500 -178.368000 -39.081100 -0.002282 -0.040193 0.005775 -0.011520 11.954500 -40.985400 0.000008 0.000006 -4.489860 10.782700 -65.221100 -11.754300 -0.000006 -0.000006 -0.009012 0.263771 -5.859030
0.000000 0.000000 0.000000 0.000000 0.000000 -0.000000 -1.927930 93.401300 -3.074700 87.288100 4.088420 2.020240 15.735700 0.000005 -0.000001 74.049600 87.162900 -71.472700 8.984550 -0.406207 -0.000000 -2.265290 -1.784290 5.118390 16.377300 -0.000001 -0.000001 3.682440 1.442580 1.551870 6.456720 -0.000001 -0.000000 -10.237300 1.873290 -3.262880 12.994200 -0.242716 4.980390 -91.522200 3.748300 -67.879200 5.348090 -0.000007 -0.000001 -58.576600 -19.704800 -18.499200 24.328600 0.000019 0.000005 -0.000069 28.722600 -0.000003 22.291600 -0.000001 0.000005 -21.368500 4.870210 9.945030 12.994500 -0.242716 -4.980390 89.183100 1.828770 -65.923400 -5.348130 -0.000001 -0.000004 -58.505500 -23.589900 -15.268600 -24.328900 0.000322 -0.000009 -0.001161 -7.547540 -0.000046 -22.291500 -0.000108 -0.000004 -12.101500 4.771960 11.857100 -2.192480 -6.469440 -0.000000 -172.257000 -7.691930 -3.232360 39.081100 -0.000007 -0.000012 -0.018717 0.063444 16.436600 40.985400 -0.000006 -0.000013 -1.155810 15.321300 -67.021400 11.754300 -0.000000 0.000003 -0.000888 0.181435 -9.217030 -2.192510 6.469440 -0.000001 178.280000 15.951800 -178.662000 -39.081100 -0.002282 -0.040193 0.000495 0.014787 10.882200 -40.985400 0.000008 0.000006 -5.156590 11.115900 -64.790600 -11.754300 -0.000006 -0.000006 -0.009014 0.263782 -5.858590
0.000000 0.000000 0.000000 0.000000 0.000000 -0.000000 -1.964800 93.439400 -2.417250 87.344900 4.775070 0.801929 15.735700 0.000005 -0.000001 64.959500 87.975800 -62.466700 8.984550 -0.406207 -0.000000 -4.051520 -1.969250 4.918710 16.377300 -0.000001 -0.000001 2.165440 1.325200 0.926188 6.456720 -0.000001 -0.000000 -9.383450 1.712640 -3.809510 12.994200 -0.242716 4.980390 -91.434400 3.395800 -67.084200 5.348090 -0.000007 -0.000001 -52.281700 -26.254600 -22.125200 24.328600 0.000019 0.000005 0.128870 23.719500 -0.320971 22.291600 -0.000001 0.000005 -12.257100 4.750220 12.211500 12.994500 -0.242716 -4.980390 89.679500 0.698738 -65.356100 -5.348130 -0.000001 -0.000004 -53.504200 -33.533200 -16.498200 -24.328900 0.000322 -0.000009 -0.001359 -13.395300 -0.000076 -22.291500 -0.000108 -0.000004 -3.449020 4.896110 9.490880 -2.192480 -6.469440 -0.000000 -172.342000 -7.704470 -3.733760 39.081100 -0.000007 -0.000012 -0.022662 0.080982 15.633500 40.985400 -0.000006 -0.000013 -1.216330 15.816100 -67.111200 11.754300 -0.000000 0.000003 -0.001043 0.183643 -9.127300 -2.192510 6.469440 -0.000001 178.359000 16.667500 -178.764000 -39.081100 -0.002282 -0.040193 -0.003235 0.038982 9.572640 -40.985400 0.000008 0.000006 -6.090560 11.269500 -64.105300 -11.754300 -0.000006 -0.000006 -0.008796 0.262078 -5.928220
0.000000 0.000000 0.000000 0.000000 0.000000 -0.000000 -1.942560 93.511900 -1.839400 87.475300 5.356680 -0.294723 15.735700 0.000005 -0.000001 47.655200 88.555600 -45.320200 8.984550 -0.406207 -0.000000 -5.583740 -2.215090 4.567390 16.377300 -0.000001 -0.000001 0.488058 1.142550 0.125424 6.456720 -0.000001 -0.000000 -8.924970 1.542250 -4.234290 12.994200 -0.242716 4.980390 -91.161100 2.647990 -66.311900 5.348090 -0.000007 -0.000001 -46.303900 -30.783400 -26.000300 24.328600 0.000019 0.000005 0.509888 20.503500 -1.455930 22.291600 -0.000001 0.000005 -1.200360 4.602050 14.844700 12.994500 -0.242716 -4.980390 90.298000 -0.636169 -64.901200 -5.348130 -0.000001 -0.000004 -49.653200 -43.050700 -19.260400 -24.328900 0.000322 -0.000009 -0.001181 -20.375600 -0.000113 -22.291500 -0.000108 -0.000004 4.813190 5.028960 6.721020 -2.192480 -6.469440 -0.000000 -172.500000 -8.187810 -3.881970 39.081100 -0.000007 -0.000012 -0.021359 0.083346 14.373200 40.985400 -0.000006 -0.000013 -1.263010 16.682400 -67.010300 11.754300 -0.000000 0.000003 -0.001132 0.184891 -9.076590 -2.192510 6.469440 -0.000001 178.324000 16.797200 -178.464000 -39.081100 -0.002282 -0.040193 -0.003742 0.053231 7.581190 -40.985400 0.000008 0.000006 -7.688680 10.904900 -62.916300 -11.754300 -0.000006 -0.000006 -0.009013 0.263774 -5.858900
0.000000 0.000000 0.000000 0.000000 0.000000 -0.000000 -1.859320 93.584400 -1.355230 87.631300 5.769350 -1.240150 15.735700 0.000005 -0.000001 23.710600 88.909500 -21.574700 8.984550 -0.406207 -0.000000 -6.846110 -2.265060 4.143730 16.377300 -0.000001 -0.000001 -1.072590 0.938345 -0.605136 6.456720 -0.000001 -0.000000 -9.026290 1.450580 -4.846600 12.994200 -0.242716 4.980390 -90.684200 1.510740 -65.628100 5.348090 -0.000007 -0.000001 -41.208000 -34.368100 -30.381800 24.328600 0.000019 0.000005 0.587086 18.098800 -1.889260 22.291600 -0.000001 0.000005 8.231160 4.493590 16.687600 12.994500 -0.242716 -4.980390 90.904000 -1.894040 -64.480600 -5.348130 -0.000001 -0.000004 -45.267700 -49.445400 -22.793500 -24.328900 0.000322 -0.000009 -0.000934 -24.117300 -0.000135 -22.291500 -0.000108 -0.000004 10.912500 5.063170 5.942850 -2.192480 -6.469440 -0.000000 -172.752000 -8.574520 -3.888940 39.081100 -0.000007 -0.000012 -0.016050 0.069246 13.049400 40.985400 -0.000006 -0.000013 -1.318040 17.266900 -66.767400 11.754300 -0.000000 0.000003 -0.001299 0.187199 -8.982760 -2.192510 6.469440 -0.000001 178.210000 16.521200 -177.755000 -39.081100 -0.002282 -0.040193 0.001736 0.018658 4.936410 -40.985400 0.000008 0.000006 -9.517750 10.220900 -61.388500 -11.754300 -0.000006 -0.000006 -0.009253 0.265636 -5.782780
0.000000 0.000000 0.000000 0.000000 0.000000 -0.000000 -1.707480 93.646200 -0.945760 87.784300 5.774500 -1.969380 15.735700 0.000005 -0.000001 -1.638570 89.074600 3.599950 8.984550 -0.406207 -0.000000 -7.782700 -2.111140 3.787580 16.377300 -0.000001 -0.000001 -2.566990 1.079830 -1.483180 6.456720 -0.000001 -0.000000 -9.494080 1.649630 -5.662410 12.994200 -0.242716 4.980390 -90.134700 0.285986 -64.767900 5.348090 -0.000007 -0.000001 -39.061700 -39.933600 -36.820900 24.328600 0.000019 0.000005 0.358182 18.577800 -1.123950 22.291600 -0.000001 0.000005 14.160300 4.379540 18.538300 12.994500 -0.242716 -4.980390 91.604000 -3.292540 -64.008200 -5.348130 -0.000001 -0.000004 -40.276800 -52.799000 -26.513300 -24.328900 0.000322 -0.000009 -0.001101 -25.098200 -0.000141 -22.291500 -0.000108 -0.000004 14.708400 5.052390 6.187390 -2.192480 -6.469440 -0.000000 -173.034000 -9.092440 -3.628170 39.081100 -0.000007 -0.000012 -0.009261 0.044522 11.749300 40.985400 -0.000006 -0.000013 -1.348840 17.644400 -66.553300 11.754300 -0.000000 0.000003 -0.001363 0.188066 -8.947500 -2.192510 6.469440 -0.000001 178.155000 16.025400 -178.099000 -39.081100 -0.002282 -0.040193 0.003171 0.002186 4.633450 -40.985400 0.000008 0.000006 -9.657390 9.735800 -61.330000 -11.754300 -0.000006 -0.000006 -0.009777 0.269628 -5.619590
0.000000 0.000000 0.000000 0.000000 0.000000 -0.000000 -1.553980 93.672000 -0.554729 87.867000 5.473700 -2.419830 15.735700 0.000005 -0.000001 -20.345000 89.086200 22.177700 8.984550 -0.406207 -0.000000 -8.370110 -1.966260 3.530320 16.377300 -0.000001 -0.000001 -3.776790 1.592950 -2.477110 6.456720 -0.000001 -0.000000 -10.124300 2.224340 -6.474310 12.994200 -0.242716 4.980390 -89.539600 -0.929533 -63.655400 5.348090 -0.000007 -0.000001 -39.106600 -45.745900 -45.008000 24.328600 0.000019 0.000005 0.000138 18.413300 -0.000001 22.291600 -0.000001 0.000005 15.966800 4.171880 21.727000 12.994500 -0.242716 -4.980390 92.120800 -4.234750 -63.367200 -5.348130 -0.000001 -0.000004 -36.082000 -55.387900 -31.757900 -24.328900 0.000322 -0.000009 -0.001064 -25.418800 -0.000143 -22.291500 -0.000108 -0.000004 16.128500 5.053180 6.167240 -2.192480 -6.469440 -0.000000 -173.188000 -9.498390 -3.341790 39.081100 -0.000007 -0.000012 -0.007707 0.039745 10.973300 40.985400 -0.000006 -0.000013 -1.631070 17.792200 -66.379600 11.754300 -0.000000 0.000003 -0.001476 0.189581 -8.885940 -2.192510 6.469440 -0.000001 178.071000 15.457800 -178.354000 -39.081100 -0.002282 -0.040193 0.003772 -0.005209 4.653650 -40.985400 0.000008 0.000006 -9.758120 9.452540 -61.394400 -11.754300 -0.000006 -0.000006 -0.009528 0.267741 -5.696750
